<?xml version="1.0" encoding="utf-8"?>
<!-- Generator: Adobe Illustrator 18.1.1, SVG Export Plug-In . SVG Version: 6.00 Build 0)  -->
<!DOCTYPE svg PUBLIC "-//W3C//DTD SVG 1.1//EN" "http://www.w3.org/Graphics/SVG/1.1/DTD/svg11.dtd">
<svg version="1.1" id="Layer_1" xmlns="http://www.w3.org/2000/svg" xmlns:xlink="http://www.w3.org/1999/xlink" x="0px" y="0px"
	 viewBox="0 0 24 24" enable-background="new 0 0 24 24" xml:space="preserve">
<g>
	<path d="M19.1,18.5C19.7,17.8,20,17,20,16c0-2.2-1.8-4-4-4s-4,1.8-4,4c0,2.2,1.8,4,4,4c0.7,0,1.3-0.1,1.8-0.4l2.7,2.7l1.1-1.1
		L19.1,18.5z M16,18.2c-1.2,0-2.2-1-2.2-2.3c0-1.2,1-2.2,2.2-2.2c1.2,0,2.3,1,2.3,2.2C18.2,17.2,17.2,18.2,16,18.2z"/>
	<path d="M11.8,13c0.3-0.4,0.6-0.7,1-1H7v-1h9c0,0,1.2,0,2,0.6V3H5v13c0,1.7,1.3,3,3,3h3.8c-0.6-0.8-1-1.9-1-3c0,0,0,0,0,0H7v-1h3.9
		c0.1-0.3,0.2-0.7,0.3-1H7v-1H11.8z M12,5h4v5h-4V5z M7,5h4v1H7V5z M7,7h4v1H7V7z M7,9h4v1H7V9z"/>
</g>
</svg>
