<?xml version="1.0" encoding="utf-8"?>
<!-- Generator: Adobe Illustrator 18.1.1, SVG Export Plug-In . SVG Version: 6.00 Build 0)  -->
<!DOCTYPE svg PUBLIC "-//W3C//DTD SVG 1.1//EN" "http://www.w3.org/Graphics/SVG/1.1/DTD/svg11.dtd">
<svg version="1.1" id="Layer_1" xmlns="http://www.w3.org/2000/svg" xmlns:xlink="http://www.w3.org/1999/xlink" x="0px" y="0px"
	 viewBox="0 0 24 24" enable-background="new 0 0 24 24" xml:space="preserve">
<g transform="matrix(1 0 0 -1 0 1638)">
	<path d="M12,1628h4v5h-4V1628z M7,1626h9v1H7V1626z M7,1624h9v1H7V1624z M7,1622h9v1H7V1622z M11,1631H7v-1h4V1631z M11,1629H7v-1
		h4V1629z M11,1633H7v-1h4V1633z M5,1635h13v-16H8c-1.7,0-3,1.3-3,3V1635z"/>
</g>
</svg>
