<?xml version="1.0" encoding="utf-8"?>
<!-- Generator: Adobe Illustrator 18.1.1, SVG Export Plug-In . SVG Version: 6.00 Build 0)  -->
<!DOCTYPE svg PUBLIC "-//W3C//DTD SVG 1.1//EN" "http://www.w3.org/Graphics/SVG/1.1/DTD/svg11.dtd">
<svg version="1.1" id="Layer_1" xmlns="http://www.w3.org/2000/svg" xmlns:xlink="http://www.w3.org/1999/xlink" x="0px" y="0px"
	 viewBox="0 0 24 24" enable-background="new 0 0 24 24" xml:space="preserve">
<g transform="matrix(1 0 0 -1 0 1638)">
	<g>
		<path d="M10.5,1625c1.7,0,3.5,2,3.5,5c0,0.1,0,4-3.5,4s-3.5-3.9-3.5-4C7,1627,8.8,1625,10.5,1625z"/>
		<path d="M14,1626c-0.4-0.7-1.7-2-3.5-2s-3.2,1.3-3.5,2H5c-1.1,0-2-0.9-2-2v-6h15v6c0,1.1-0.9,2-2,2H14z"/>
	</g>
</g>
</svg>
